<svg width="16" height="16" viewBox="0 0 16 16" fill="none" xmlns="http://www.w3.org/2000/svg">
<path fill-rule="evenodd" clip-rule="evenodd" d="M5.33333 14C4.59733 14 4 13.4027 4 12.6667C4 11.9307 4.59733 11.3333 5.33333 11.3333C6.06933 11.3333 6.66667 11.9307 6.66667 12.6667C6.66667 13.4027 6.06933 14 5.33333 14ZM4 8C4 8.736 4.59733 9.33333 5.33333 9.33333C6.06933 9.33333 6.66667 8.736 6.66667 8C6.66667 7.264 6.06933 6.66667 5.33333 6.66667C4.59733 6.66667 4 7.264 4 8ZM4 3.33333C4 4.06933 4.59733 4.66667 5.33333 4.66667C6.06933 4.66667 6.66667 4.06933 6.66667 3.33333C6.66667 2.59733 6.06933 2 5.33333 2C4.59733 2 4 2.59733 4 3.33333Z" fill="#C1C1C1"/>
<path fill-rule="evenodd" clip-rule="evenodd" d="M11 14C10.264 14 9.66663 13.4027 9.66663 12.6667C9.66663 11.9307 10.264 11.3333 11 11.3333C11.736 11.3333 12.3333 11.9307 12.3333 12.6667C12.3333 13.4027 11.736 14 11 14ZM9.66663 8C9.66663 8.736 10.264 9.33333 11 9.33333C11.736 9.33333 12.3333 8.736 12.3333 8C12.3333 7.264 11.736 6.66667 11 6.66667C10.264 6.66667 9.66663 7.264 9.66663 8ZM9.66663 3.33333C9.66663 4.06933 10.264 4.66667 11 4.66667C11.736 4.66667 12.3333 4.06933 12.3333 3.33333C12.3333 2.59733 11.736 2 11 2C10.264 2 9.66663 2.59733 9.66663 3.33333Z" fill="#C1C1C1"/>
</svg>
